<mxfile host="65bd71144e">
    <diagram id="pX6h5-MUW_hEPfTr5iVK" name="Page-1">
        <mxGraphModel dx="1291" dy="916" grid="1" gridSize="10" guides="1" tooltips="1" connect="1" arrows="1" fold="1" page="1" pageScale="1" pageWidth="1600" pageHeight="900" math="0" shadow="0">
            <root>
                <mxCell id="0"/>
                <mxCell id="1" parent="0"/>
                <mxCell id="3" value="A&#10;(Initiator)" style="rounded=1;fontSize=16;fontColor=#ffffff;fillColor=#1ba1e2;strokeColor=#006EAF;" parent="1" vertex="1">
                    <mxGeometry x="480" y="100" width="120" height="60" as="geometry"/>
                </mxCell>
                <mxCell id="4" value="B&#10;(Client)" style="rounded=1;fontSize=16;fontColor=#ffffff;fillColor=#1ba1e2;strokeColor=#006EAF;" parent="1" vertex="1">
                    <mxGeometry x="920" y="100" width="120" height="60" as="geometry"/>
                </mxCell>
                <mxCell id="5" value="" style="endArrow=none;dashed=1;fontSize=16;fontColor=#000000;strokeWidth=3;fillColor=#fa6800;strokeColor=#C73500;" parent="1" edge="1">
                    <mxGeometry width="50" height="50" relative="1" as="geometry">
                        <mxPoint x="760" y="770" as="sourcePoint"/>
                        <mxPoint x="760" y="80" as="targetPoint"/>
                    </mxGeometry>
                </mxCell>
                <mxCell id="17" value="" style="edgeStyle=none;exitX=1;exitY=0.5;exitDx=0;exitDy=0;entryX=0;entryY=0.5;entryDx=0;entryDy=0;strokeWidth=3;fontSize=16;fontColor=#FFFFFF;" parent="1" source="8" target="14" edge="1">
                    <mxGeometry relative="1" as="geometry"/>
                </mxCell>
                <mxCell id="8" value="Public key&#10;A (Temporary)" style="rounded=0;fontSize=16;fontColor=#ffffff;fillColor=#60a917;strokeColor=#2D7600;" parent="1" vertex="1">
                    <mxGeometry x="600" y="160" width="110" height="50" as="geometry"/>
                </mxCell>
                <mxCell id="25" value="" style="edgeStyle=none;exitX=1;exitY=1;exitDx=0;exitDy=0;entryX=0.25;entryY=0;entryDx=0;entryDy=0;strokeWidth=3;fontSize=16;fontColor=#FFFFFF;" parent="1" source="9" target="23" edge="1">
                    <mxGeometry relative="1" as="geometry"/>
                </mxCell>
                <mxCell id="9" value="Private key&#10;A (Temporary)" style="rounded=0;fontSize=16;fontColor=#FFFFFF;fillColor=#fa6800;strokeColor=#C73500;" parent="1" vertex="1">
                    <mxGeometry x="360" y="160" width="110" height="50" as="geometry"/>
                </mxCell>
                <mxCell id="16" value="" style="edgeStyle=none;exitX=0;exitY=0.5;exitDx=0;exitDy=0;entryX=1;entryY=0.5;entryDx=0;entryDy=0;strokeWidth=3;fontSize=16;fontColor=#FFFFFF;" parent="1" source="10" target="15" edge="1">
                    <mxGeometry relative="1" as="geometry"/>
                </mxCell>
                <mxCell id="10" value="Public key&#10;B (Temporary)" style="rounded=0;fontSize=16;fontColor=#ffffff;fillColor=#60a917;strokeColor=#2D7600;" parent="1" vertex="1">
                    <mxGeometry x="800" y="240" width="110" height="50" as="geometry"/>
                </mxCell>
                <mxCell id="22" value="" style="edgeStyle=none;exitX=0;exitY=1;exitDx=0;exitDy=0;entryX=0.75;entryY=0;entryDx=0;entryDy=0;strokeWidth=3;fontSize=16;fontColor=#FFFFFF;" parent="1" source="11" target="20" edge="1">
                    <mxGeometry relative="1" as="geometry"/>
                </mxCell>
                <mxCell id="11" value="Private key&#10;B (Temporary)" style="rounded=0;fontSize=16;fontColor=#FFFFFF;fillColor=#fa6800;strokeColor=#C73500;" parent="1" vertex="1">
                    <mxGeometry x="1050" y="160" width="110" height="50" as="geometry"/>
                </mxCell>
                <mxCell id="21" value="" style="edgeStyle=none;exitX=1;exitY=1;exitDx=0;exitDy=0;entryX=0.25;entryY=0;entryDx=0;entryDy=0;strokeWidth=3;fontSize=16;fontColor=#FFFFFF;" parent="1" source="14" target="20" edge="1">
                    <mxGeometry relative="1" as="geometry"/>
                </mxCell>
                <mxCell id="14" value="Public key&#10;A (Temporary)" style="rounded=0;fontSize=16;fontColor=#ffffff;fillColor=#60a917;strokeColor=#2D7600;" parent="1" vertex="1">
                    <mxGeometry x="800" y="160" width="110" height="50" as="geometry"/>
                </mxCell>
                <mxCell id="24" value="" style="edgeStyle=none;exitX=0;exitY=1;exitDx=0;exitDy=0;entryX=0.75;entryY=0;entryDx=0;entryDy=0;strokeWidth=3;fontSize=16;fontColor=#FFFFFF;" parent="1" source="15" target="23" edge="1">
                    <mxGeometry relative="1" as="geometry"/>
                </mxCell>
                <mxCell id="15" value="Public key&#10;B (Temporary)" style="rounded=0;fontSize=16;fontColor=#ffffff;fillColor=#60a917;strokeColor=#2D7600;" parent="1" vertex="1">
                    <mxGeometry x="600" y="240" width="110" height="50" as="geometry"/>
                </mxCell>
                <mxCell id="34" value="" style="edgeStyle=none;exitX=0;exitY=1;exitDx=0;exitDy=0;entryX=0.5;entryY=0;entryDx=0;entryDy=0;strokeWidth=3;fontSize=16;fontColor=#FFFFFF;" parent="1" source="20" target="64" edge="1">
                    <mxGeometry relative="1" as="geometry">
                        <mxPoint x="870" y="440" as="targetPoint"/>
                    </mxGeometry>
                </mxCell>
                <mxCell id="35" value="" style="edgeStyle=none;exitX=1;exitY=1;exitDx=0;exitDy=0;entryX=0.5;entryY=0;entryDx=0;entryDy=0;strokeWidth=3;fontSize=16;fontColor=#FFFFFF;" parent="1" source="20" target="65" edge="1">
                    <mxGeometry relative="1" as="geometry">
                        <mxPoint x="1090" y="440" as="targetPoint"/>
                    </mxGeometry>
                </mxCell>
                <mxCell id="37" value="" style="edgeStyle=none;exitX=1;exitY=0.5;exitDx=0;exitDy=0;entryX=0;entryY=0.5;entryDx=0;entryDy=0;strokeWidth=3;fontSize=16;fontColor=#FFFFFF;entryPerimeter=0;" parent="1" source="20" target="39" edge="1">
                    <mxGeometry relative="1" as="geometry">
                        <mxPoint x="1160" y="385" as="targetPoint"/>
                    </mxGeometry>
                </mxCell>
                <mxCell id="20" value="Shared&#10;Secret" style="rounded=0;fontSize=16;fontColor=#ffffff;fillColor=#76608a;strokeColor=#432D57;" parent="1" vertex="1">
                    <mxGeometry x="930" y="310" width="100" height="50" as="geometry"/>
                </mxCell>
                <mxCell id="29" value="" style="edgeStyle=none;exitX=0;exitY=0.5;exitDx=0;exitDy=0;strokeWidth=3;fontSize=16;fontColor=#FFFFFF;entryX=1.013;entryY=0.57;entryDx=0;entryDy=0;entryPerimeter=0;" parent="1" source="23" target="38" edge="1">
                    <mxGeometry relative="1" as="geometry">
                        <mxPoint x="360" y="385" as="targetPoint"/>
                    </mxGeometry>
                </mxCell>
                <mxCell id="30" value="" style="edgeStyle=none;exitX=0;exitY=1;exitDx=0;exitDy=0;entryX=0.5;entryY=0;entryDx=0;entryDy=0;strokeWidth=3;fontSize=16;fontColor=#FFFFFF;" parent="1" source="23" target="27" edge="1">
                    <mxGeometry relative="1" as="geometry"/>
                </mxCell>
                <mxCell id="31" value="" style="edgeStyle=none;exitX=1;exitY=1;exitDx=0;exitDy=0;entryX=0.5;entryY=0;entryDx=0;entryDy=0;strokeWidth=3;fontSize=16;fontColor=#FFFFFF;" parent="1" source="23" target="28" edge="1">
                    <mxGeometry relative="1" as="geometry"/>
                </mxCell>
                <mxCell id="23" value="Shared&#10;Secret" style="rounded=0;fontSize=16;fontColor=#ffffff;fillColor=#76608a;strokeColor=#432D57;" parent="1" vertex="1">
                    <mxGeometry x="490" y="310" width="100" height="50" as="geometry"/>
                </mxCell>
                <mxCell id="91" value="" style="edgeStyle=none;exitX=0;exitY=1;exitDx=0;exitDy=0;entryX=1;entryY=0;entryDx=0;entryDy=0;strokeWidth=3;fontSize=16;fontColor=#FFFFFF;" parent="1" source="27" target="87" edge="1">
                    <mxGeometry relative="1" as="geometry"/>
                </mxCell>
                <mxCell id="27" value="Symmetric&#10;Key b,&#10;Salt b" style="rounded=0;fontSize=16;fontColor=#000000;fillColor=#e3c800;strokeColor=#B09500;" parent="1" vertex="1">
                    <mxGeometry x="380" y="440" width="100" height="80" as="geometry"/>
                </mxCell>
                <mxCell id="80" value="" style="edgeStyle=none;exitX=0.5;exitY=1;exitDx=0;exitDy=0;entryX=0.5;entryY=0;entryDx=0;entryDy=0;entryPerimeter=0;strokeWidth=3;fontSize=16;fontColor=#FFFFFF;" parent="1" source="28" target="76" edge="1">
                    <mxGeometry relative="1" as="geometry"/>
                </mxCell>
                <mxCell id="28" value="Symmetric&#10;Key a,&#10;Salt a" style="rounded=0;fontSize=16;fontColor=#000000;fillColor=#e3c800;strokeColor=#B09500;" parent="1" vertex="1">
                    <mxGeometry x="600" y="440" width="100" height="80" as="geometry"/>
                </mxCell>
                <mxCell id="38" value="Key&#10;Material" style="shape=note;backgroundOutline=1;darkOpacity=0.05;rounded=0;fontSize=16;fontColor=#ffffff;fillColor=#e51400;strokeColor=#B20000;" parent="1" vertex="1">
                    <mxGeometry x="210" y="420" width="80" height="100" as="geometry"/>
                </mxCell>
                <mxCell id="39" value="Key&#10;MAterial" style="shape=note;backgroundOutline=1;darkOpacity=0.05;rounded=0;fontSize=16;fontColor=#ffffff;fillColor=#e51400;strokeColor=#B20000;" parent="1" vertex="1">
                    <mxGeometry x="1220" y="420" width="80" height="100" as="geometry"/>
                </mxCell>
                <mxCell id="40" value="Key Derivation" style="rounded=1;fontSize=16;fontColor=#ffffff;fillColor=#6d8764;strokeColor=#3A5431;" parent="1" vertex="1">
                    <mxGeometry x="330" y="380" width="360" height="30" as="geometry"/>
                </mxCell>
                <mxCell id="41" value="Key Derivation" style="rounded=1;fontSize=16;fontColor=#ffffff;fillColor=#6d8764;strokeColor=#3A5431;" parent="1" vertex="1">
                    <mxGeometry x="830" y="380" width="360" height="30" as="geometry"/>
                </mxCell>
                <mxCell id="84" value="" style="edgeStyle=none;exitX=0;exitY=0.5;exitDx=0;exitDy=0;entryX=0;entryY=0;entryDx=120;entryDy=87.5;entryPerimeter=0;strokeWidth=3;fontSize=16;fontColor=#FFFFFF;" parent="1" source="45" target="60" edge="1">
                    <mxGeometry relative="1" as="geometry"/>
                </mxCell>
                <mxCell id="45" value="Public key&#10;B" style="rounded=0;fontSize=16;fontColor=#ffffff;fillColor=#60a917;strokeColor=#2D7600;" parent="1" vertex="1">
                    <mxGeometry x="1150" y="646" width="100" height="50" as="geometry"/>
                </mxCell>
                <mxCell id="95" value="" style="edgeStyle=none;exitX=0.5;exitY=1;exitDx=0;exitDy=0;entryX=1;entryY=0;entryDx=0;entryDy=0;strokeWidth=3;fontSize=16;fontColor=#FFFFFF;" parent="1" source="46" target="88" edge="1">
                    <mxGeometry relative="1" as="geometry"/>
                </mxCell>
                <mxCell id="46" value="Public key&#10;A" style="rounded=0;fontSize=16;fontColor=#ffffff;fillColor=#60a917;strokeColor=#2D7600;" parent="1" vertex="1">
                    <mxGeometry x="1250" y="646" width="100" height="50" as="geometry"/>
                </mxCell>
                <mxCell id="68" value="" style="edgeStyle=none;exitX=0;exitY=0.5;exitDx=0;exitDy=0;exitPerimeter=0;entryX=1.007;entryY=0.549;entryDx=0;entryDy=0;entryPerimeter=0;strokeWidth=3;fontSize=16;fontColor=#FFFFFF;" parent="1" source="60" target="66" edge="1">
                    <mxGeometry relative="1" as="geometry"/>
                </mxCell>
                <mxCell id="60" value="ed25519&#10;signature&#10;" style="shape=note;backgroundOutline=1;darkOpacity=0.05;rounded=0;fontSize=16;fontColor=#000000;fillColor=#f0a30a;strokeColor=#BD7000;" parent="1" vertex="1">
                    <mxGeometry x="1000" y="583" width="120" height="145" as="geometry"/>
                </mxCell>
                <mxCell id="61" value="Private key&#10;B" style="rounded=0;fontSize=16;fontColor=#FFFFFF;fillColor=#fa6800;strokeColor=#C73500;" parent="1" vertex="1">
                    <mxGeometry x="1010" y="678" width="100" height="50" as="geometry"/>
                </mxCell>
                <mxCell id="67" value="" style="edgeStyle=none;exitX=0.5;exitY=1;exitDx=0;exitDy=0;entryX=0.5;entryY=0;entryDx=0;entryDy=0;entryPerimeter=0;strokeWidth=3;fontSize=16;fontColor=#FFFFFF;" parent="1" source="64" target="66" edge="1">
                    <mxGeometry relative="1" as="geometry"/>
                </mxCell>
                <mxCell id="64" value="Symmetric&#10;Key b,&#10;Salt b" style="rounded=0;fontSize=16;fontColor=#000000;fillColor=#e3c800;strokeColor=#B09500;" parent="1" vertex="1">
                    <mxGeometry x="817.5" y="440" width="100" height="80" as="geometry"/>
                </mxCell>
                <mxCell id="96" value="" style="edgeStyle=none;exitX=0.5;exitY=1;exitDx=0;exitDy=0;entryX=0.5;entryY=0;entryDx=0;entryDy=0;strokeWidth=3;fontSize=16;fontColor=#FFFFFF;" parent="1" source="65" target="88" edge="1">
                    <mxGeometry relative="1" as="geometry"/>
                </mxCell>
                <mxCell id="65" value="Symmetric&#10;Key a,&#10;Salt a" style="rounded=0;fontSize=16;fontColor=#000000;fillColor=#e3c800;strokeColor=#B09500;" parent="1" vertex="1">
                    <mxGeometry x="1040" y="440" width="100" height="80" as="geometry"/>
                </mxCell>
                <mxCell id="81" value="" style="edgeStyle=none;exitX=0;exitY=0.5;exitDx=0;exitDy=0;exitPerimeter=0;strokeWidth=3;fontSize=16;fontColor=#FFFFFF;entryX=0.99;entryY=0.573;entryDx=0;entryDy=0;entryPerimeter=0;" parent="1" source="66" target="82" edge="1">
                    <mxGeometry relative="1" as="geometry">
                        <mxPoint x="480" y="649.8571428571429" as="targetPoint"/>
                    </mxGeometry>
                </mxCell>
                <mxCell id="66" value="AES128" style="shape=note;backgroundOutline=1;darkOpacity=0.05;rounded=0;fontSize=16;fontColor=#ffffff;fillColor=#647687;strokeColor=#314354;" parent="1" vertex="1">
                    <mxGeometry x="817.5" y="590" width="102.5" height="118.75" as="geometry"/>
                </mxCell>
                <mxCell id="83" value="" style="edgeStyle=none;exitX=1;exitY=0.5;exitDx=0;exitDy=0;entryX=0;entryY=0.5;entryDx=0;entryDy=0;entryPerimeter=0;strokeWidth=3;fontSize=16;fontColor=#FFFFFF;" parent="1" source="70" target="74" edge="1">
                    <mxGeometry relative="1" as="geometry"/>
                </mxCell>
                <mxCell id="93" value="" style="edgeStyle=none;exitX=0.5;exitY=0;exitDx=0;exitDy=0;entryX=0.5;entryY=1;entryDx=0;entryDy=0;strokeWidth=3;fontSize=16;fontColor=#FFFFFF;" parent="1" source="70" target="87" edge="1">
                    <mxGeometry relative="1" as="geometry"/>
                </mxCell>
                <mxCell id="70" value="Public key&#10;B" style="rounded=0;fontSize=16;fontColor=#ffffff;fillColor=#60a917;strokeColor=#2D7600;" parent="1" vertex="1">
                    <mxGeometry x="270" y="756.25" width="100" height="50" as="geometry"/>
                </mxCell>
                <mxCell id="72" value="Public key&#10;A" style="rounded=0;fontSize=16;fontColor=#ffffff;fillColor=#60a917;strokeColor=#2D7600;" parent="1" vertex="1">
                    <mxGeometry x="170" y="756.25" width="100" height="50" as="geometry"/>
                </mxCell>
                <mxCell id="79" value="" style="edgeStyle=none;exitX=0;exitY=0;exitDx=120.00000000000001;exitDy=87.5;exitPerimeter=0;entryX=0;entryY=0.5;entryDx=0;entryDy=0;entryPerimeter=0;strokeWidth=3;fontSize=16;fontColor=#FFFFFF;" parent="1" source="74" target="76" edge="1">
                    <mxGeometry relative="1" as="geometry"/>
                </mxCell>
                <mxCell id="74" value="ed25519&#10;signature&#10;" style="shape=note;backgroundOutline=1;darkOpacity=0.05;rounded=0;fontSize=16;fontColor=#000000;fillColor=#f0a30a;strokeColor=#BD7000;" parent="1" vertex="1">
                    <mxGeometry x="407.5" y="708.75" width="120" height="145" as="geometry"/>
                </mxCell>
                <mxCell id="75" value="Private key&#10;A" style="rounded=0;fontSize=16;fontColor=#FFFFFF;fillColor=#fa6800;strokeColor=#C73500;" parent="1" vertex="1">
                    <mxGeometry x="417.5" y="803.75" width="100" height="50" as="geometry"/>
                </mxCell>
                <mxCell id="89" value="" style="edgeStyle=none;exitX=0;exitY=0;exitDx=102.5;exitDy=74.375;exitPerimeter=0;strokeWidth=3;fontSize=16;fontColor=#FFFFFF;" parent="1" source="76" edge="1">
                    <mxGeometry relative="1" as="geometry">
                        <mxPoint x="880" y="811.2857142857144" as="targetPoint"/>
                    </mxGeometry>
                </mxCell>
                <mxCell id="76" value="AES128" style="shape=note;backgroundOutline=1;darkOpacity=0.05;rounded=0;fontSize=16;fontColor=#ffffff;fillColor=#647687;strokeColor=#314354;" parent="1" vertex="1">
                    <mxGeometry x="597.5" y="736.87" width="102.5" height="118.75" as="geometry"/>
                </mxCell>
                <mxCell id="92" value="" style="edgeStyle=none;exitX=0;exitY=0.5;exitDx=0;exitDy=0;exitPerimeter=0;entryX=1;entryY=0.5;entryDx=0;entryDy=0;strokeWidth=3;fontSize=16;fontColor=#FFFFFF;" parent="1" source="82" target="87" edge="1">
                    <mxGeometry relative="1" as="geometry"/>
                </mxCell>
                <mxCell id="82" value="AES128" style="shape=note;backgroundOutline=1;darkOpacity=0.05;rounded=0;fontSize=16;fontColor=#ffffff;fillColor=#647687;strokeColor=#314354;" parent="1" vertex="1">
                    <mxGeometry x="377.5" y="580" width="102.5" height="118.75" as="geometry"/>
                </mxCell>
                <mxCell id="87" value="Decrypt&#10;&amp;&#10;Verify" style="rounded=1;fontSize=16;fontColor=#ffffff;fillColor=#6d8764;strokeColor=#3A5431;" parent="1" vertex="1">
                    <mxGeometry x="200" y="594.38" width="110" height="90" as="geometry"/>
                </mxCell>
                <mxCell id="88" value="Decrypt&#10;&amp;&#10;Verify" style="rounded=1;fontSize=16;fontColor=#ffffff;fillColor=#6d8764;strokeColor=#3A5431;" parent="1" vertex="1">
                    <mxGeometry x="1120" y="763.75" width="110" height="90" as="geometry"/>
                </mxCell>
                <mxCell id="94" value="" style="edgeStyle=none;exitX=0;exitY=0;exitDx=102.5;exitDy=74.375;exitPerimeter=0;entryX=0;entryY=0.5;entryDx=0;entryDy=0;strokeWidth=3;fontSize=16;fontColor=#FFFFFF;" parent="1" source="90" target="88" edge="1">
                    <mxGeometry relative="1" as="geometry"/>
                </mxCell>
                <mxCell id="90" value="AES128" style="shape=note;backgroundOutline=1;darkOpacity=0.05;rounded=0;fontSize=16;fontColor=#ffffff;fillColor=#647687;strokeColor=#314354;" parent="1" vertex="1">
                    <mxGeometry x="880" y="735" width="102.5" height="118.75" as="geometry"/>
                </mxCell>
            </root>
        </mxGraphModel>
    </diagram>
</mxfile>